<?xml version="1.0" ?><svg height="48" id="svg6485" version="1.1" viewBox="0 0 48 48" width="48" xmlns="http://www.w3.org/2000/svg" xmlns:cc="http://creativecommons.org/ns#" xmlns:dc="http://purl.org/dc/elements/1.1/" xmlns:inkscape="http://www.inkscape.org/namespaces/inkscape" xmlns:rdf="http://www.w3.org/1999/02/22-rdf-syntax-ns#" xmlns:sodipodi="http://sodipodi.sourceforge.net/DTD/sodipodi-0.dtd" xmlns:svg="http://www.w3.org/2000/svg"><defs id="defs6487"/><g id="layer1" transform="translate(0,-1004.3622)"><text id="text4366" style="font-style:normal;font-weight:normal;font-size:11.25px;line-height:125%;font-family:Sans;letter-spacing:0px;word-spacing:0px;fill:#000000;fill-opacity:1;stroke:none;stroke-width:1px;stroke-linecap:butt;stroke-linejoin:miter;stroke-opacity:1" x="12" xml:space="preserve" y="1036.3622"><tspan id="tspan4368" x="12" y="1036.3622"/></text><g id="text4981" style="font-style:normal;font-variant:normal;font-weight:normal;font-stretch:normal;font-size:12.37186241px;line-height:125%;font-family:'Roboto Condensed';-inkscape-font-specification:'Roboto Condensed, ';letter-spacing:0px;word-spacing:0px;fill:#000000;fill-opacity:1;stroke:none;stroke-width:1px;stroke-linecap:butt;stroke-linejoin:miter;stroke-opacity:1" transform="scale(1.1477838,0.87124422)"/><g id="g6113"><g id="g5964" transform="translate(640.02794,259.17156)"><path d="m -616.02794,745.19064 c -13.25187,0 -24,10.74825 -24,24 0,13.2519 10.74813,24 24,24 13.25187,0 24,-10.7481 24,-24 0,-13.25175 -10.74813,-24 -24,-24 z m 0,1.5 c 12.42359,0 22.5,10.07655 22.5,22.5 0,12.4236 -10.07641,22.5 -22.5,22.5 -12.42359,0 -22.5,-10.0764 -22.5,-22.5 0,-12.42345 10.07641,-22.5 22.5,-22.5 z" id="path5827" style="color:#000000;font-style:normal;font-variant:normal;font-weight:normal;font-stretch:normal;font-size:medium;line-height:normal;font-family:sans-serif;text-indent:0;text-align:start;text-decoration:none;text-decoration-line:none;text-decoration-style:solid;text-decoration-color:#000000;letter-spacing:normal;word-spacing:normal;text-transform:none;direction:ltr;block-progression:tb;writing-mode:lr-tb;baseline-shift:baseline;text-anchor:start;white-space:normal;clip-rule:nonzero;display:inline;overflow:visible;visibility:visible;opacity:1;isolation:auto;mix-blend-mode:normal;color-interpolation:sRGB;color-interpolation-filters:linearRGB;solid-color:#000000;solid-opacity:1;fill:#9448f7;fill-opacity:1;fill-rule:nonzero;stroke:none;stroke-width:0.99999994;stroke-linecap:round;stroke-linejoin:round;stroke-miterlimit:4;stroke-dasharray:none;stroke-dashoffset:0;stroke-opacity:1;color-rendering:auto;image-rendering:auto;shape-rendering:auto;text-rendering:auto;enable-background:accumulate"/><path d="m -616.02794,749.44059 c -10.90519,0 -19.75,8.84505 -19.75,19.75005 0,10.90515 8.84481,19.75005 19.75,19.75005 10.90519,0 19.75,-8.8449 19.75,-19.75005 0,-10.905 -8.84481,-19.75005 -19.75,-19.75005 z" id="path5829" style="color:#000000;font-style:normal;font-variant:normal;font-weight:normal;font-stretch:normal;font-size:medium;line-height:normal;font-family:sans-serif;text-indent:0;text-align:start;text-decoration:none;text-decoration-line:none;text-decoration-style:solid;text-decoration-color:#000000;letter-spacing:normal;word-spacing:normal;text-transform:none;direction:ltr;block-progression:tb;writing-mode:lr-tb;baseline-shift:baseline;text-anchor:start;white-space:normal;clip-rule:nonzero;display:inline;overflow:visible;visibility:visible;opacity:1;isolation:auto;mix-blend-mode:normal;color-interpolation:sRGB;color-interpolation-filters:linearRGB;solid-color:#000000;solid-opacity:1;fill:#9448f7;fill-opacity:1;fill-rule:nonzero;stroke:none;stroke-width:0.99999994;stroke-linecap:round;stroke-linejoin:round;stroke-miterlimit:4;stroke-dasharray:none;stroke-dashoffset:0;stroke-opacity:1;color-rendering:auto;image-rendering:auto;shape-rendering:auto;text-rendering:auto;enable-background:accumulate"/><path d="m -616.02794,749.44059 c -10.90519,0 -19.75,8.84505 -19.75,19.75005 0,5.4579 2.21752,10.39755 5.798,13.9728 l 27.92477,-27.92475 c -3.57517,-3.5805 -8.51487,-5.7981 -13.97277,-5.7981 z" id="path5831" style="color:#000000;clip-rule:nonzero;display:inline;overflow:visible;visibility:visible;opacity:1;isolation:auto;mix-blend-mode:normal;color-interpolation:sRGB;color-interpolation-filters:linearRGB;solid-color:#000000;solid-opacity:1;fill:#763ece;fill-opacity:1;fill-rule:nonzero;stroke:none;stroke-width:1.5;stroke-linecap:butt;stroke-linejoin:miter;stroke-miterlimit:4;stroke-dasharray:none;stroke-dashoffset:0;stroke-opacity:1;color-rendering:auto;image-rendering:auto;shape-rendering:auto;text-rendering:auto;enable-background:accumulate"/></g><path d="m 25.978516,1014.3622 0,0 c -0.276131,0 -0.499972,0.2239 -0.5,0.5 l 0,2.4766 c -1.073262,0.2302 -2.087451,0.6519 -3.007813,1.25 l -1.753906,-1.7539 c -0.195265,-0.1952 -0.511766,-0.1952 -0.707031,0 l -1.898438,1.8984 c -0.195184,0.1953 -0.195184,0.5118 0,0.707 l 1.703125,1.7031 c -0.110903,0.1977 -0.230865,0.3898 -0.353515,0.5801 l -1.601563,0 c -0.276131,10e-5 -0.499972,0.2239 -0.5,0.5 l 0,2.0547 c -0.876344,0.1958 -1.703915,0.5406 -2.460937,1.0235 l -1.455079,-1.4571 c -0.195265,-0.1952 -0.511766,-0.1952 -0.707031,0 l -1.613281,1.6133 c -0.195185,0.1953 -0.195185,0.5118 0,0.707 l 1.455078,1.4571 c -0.481482,0.7573 -0.825023,1.5849 -1.019531,2.4609 l -2.058594,0 c -0.2761309,0 -0.4999724,0.2239 -0.5,0.5 l 0,2.2793 c 2.76e-5,0.2761 0.2238691,0.5 0.5,0.5 l 2.054688,0 c 0.195857,0.877 0.540039,1.7055 1.023437,2.4629 l -1.455078,1.4551 c -0.195184,0.1952 -0.195184,0.5117 0,0.707 l 1.613281,1.6133 c 0.195265,0.1952 0.511766,0.1952 0.707031,0 l 1.455079,-1.4551 c 0.757222,0.4814 1.584985,0.8231 2.460937,1.0176 l 0,2.0605 c 2.8e-5,0.2762 0.223869,0.5 0.5,0.5 l 2.28125,0 c 0.276131,0 0.499972,-0.2238 0.5,-0.5 l 0,-2.0566 c 0.876279,-0.1957 1.703964,-0.5386 2.460937,-1.0215 l 1.455079,1.4551 c 0.195265,0.1952 0.511766,0.1952 0.707031,0 l 1.613281,-1.6133 c 0.07229,-0.072 0.120687,-0.165 0.138672,-0.2656 l 1.646484,0 c 0.276131,-10e-5 0.499972,-0.2239 0.5,-0.5 l 0,-2.4766 c 1.073127,-0.2302 2.085597,-0.652 3.00586,-1.25 l 1.753906,1.7539 c 0.195265,0.1952 0.511766,0.1952 0.707031,0 l 1.900391,-1.8984 c 0.195184,-0.1953 0.195184,-0.5118 0,-0.707 l -1.753906,-1.752 c 0.596366,-0.9207 1.015467,-1.9351 1.24414,-3.0079 l 2.480469,0 c 0.276131,0 0.499972,-0.2238 0.5,-0.5 l 0,-2.6836 c -2.8e-5,-0.2761 -0.223869,-0.4999 -0.5,-0.5 l -2.474609,0 c -0.230325,-1.0739 -0.651334,-2.0889 -1.25,-3.0097 l 1.751953,-1.752 c 0.195724,-0.1947 0.196599,-0.5112 0.002,-0.707 l -1.900391,-1.8984 c -0.195265,-0.1952 -0.511766,-0.1952 -0.707031,0 l -1.753906,1.7539 c -0.920312,-0.5959 -1.933555,-1.0176 -3.00586,-1.2461 l 0,-2.4805 c -2.8e-5,-0.2761 -0.223869,-0.5 -0.5,-0.5 z m 0.5,1.0039 1.683593,0 0,2.3008 c -2.71e-4,0.2454 0.177643,0.4548 0.419922,0.4941 1.235463,0.1977 2.407848,0.683 3.421875,1.416 0.199217,0.1436 0.473162,0.1212 0.646485,-0.053 l 1.625,-1.625 1.193359,1.1914 -1.628906,1.625 c -0.17439,0.1741 -0.195942,0.4493 -0.05078,0.6484 0.735377,1.0134 1.222216,2.1858 1.421876,3.4219 0.03933,0.2423 0.24869,0.4202 0.49414,0.4199 l 2.294922,0 0,1.6836 -2.300781,0 c -0.24545,-2e-4 -0.45481,0.1777 -0.494141,0.42 -0.197693,1.2355 -0.681047,2.4078 -1.414062,3.4218 -0.144034,0.1988 -0.122518,0.4727 0.05078,0.6465 l 1.626953,1.625 -1.193359,1.1914 -1.625,-1.6269 c -0.173324,-0.1739 -0.447268,-0.1963 -0.646485,-0.053 -1.013397,0.7354 -2.1858,1.2222 -3.421875,1.4219 -0.242279,0.039 -0.420193,0.2487 -0.419922,0.4942 l 0,2.2949 -1.84375,0 -0.896484,-0.8965 c 0.481807,-0.7578 0.825097,-1.5862 1.019531,-2.4629 l 2.058594,0 c 0.276131,0 0.499972,-0.2239 0.5,-0.5 l 0,-1.6875 c 2.153523,-0.7067 3.640158,-2.6849 3.710938,-4.9687 0.01799,-0.052 0.02724,-0.107 0.02734,-0.1622 5.1e-5,-2.9871 -2.430903,-5.4199 -5.417969,-5.4199 -2.515648,10e-5 -4.655707,1.7408 -5.242187,4.1367 -0.461735,-0.2046 -0.940487,-0.3681 -1.4375,-0.4785 l 0,-2.0586 c 1.41e-4,-0.1093 -0.03553,-0.2156 -0.101563,-0.3027 0.125199,-0.2051 0.243201,-0.414 0.351563,-0.6289 0.09764,-0.1933 0.05979,-0.4274 -0.09375,-0.5801 l -1.625,-1.625 1.191406,-1.1914 1.626953,1.627 c 0.173825,0.1733 0.447733,0.1948 0.646485,0.051 1.013397,-0.7354 2.185801,-1.2221 3.421875,-1.4218 0.242279,-0.039 0.420193,-0.2487 0.419922,-0.4942 z m 0.841796,6.2617 c 2.44662,0 4.418011,1.9733 4.417969,4.4199 -2e-6,1.8825 -1.190332,3.5212 -2.93164,4.1446 -0.08766,-0.068 -0.195549,-0.1054 -0.306641,-0.1055 l -2.054688,0 c -0.195723,-0.8763 -0.54055,-1.7039 -1.023437,-2.4609 l 1.455078,-1.4551 c 0.19649,-0.1955 0.19649,-0.5135 0,-0.709 l -1.613281,-1.6133 c -0.195265,-0.1952 -0.511766,-0.1952 -0.707031,0 l -1.457032,1.4571 c -0.03556,-0.023 -0.07351,-0.041 -0.109375,-0.062 0.386393,-2.0847 2.187494,-3.6152 4.330078,-3.6153 z m -8.960937,1.0996 1.28125,0 0,1.8789 c -2.71e-4,0.2455 0.177643,0.4549 0.419922,0.4942 0.734061,0.1174 1.439207,0.3599 2.091797,0.707 0.04335,0.032 0.09149,0.056 0.142578,0.072 0.220522,0.1241 0.434497,0.2611 0.640625,0.4101 0.199681,0.1431 0.473664,0.1199 0.646484,-0.055 l 1.328125,-1.3281 0.90625,0.9063 -1.328125,1.3281 c -0.175,0.1736 -0.197384,0.4488 -0.05273,0.6484 0.617949,0.8516 1.027527,1.8363 1.195312,2.875 0.03933,0.2423 0.248691,0.4202 0.494141,0.42 l 1.875,0 0,1.2793 -1.878906,0 c -0.246081,-2e-4 -0.45567,0.1788 -0.494141,0.4218 -0.166134,1.0382 -0.57347,2.0229 -1.189453,2.875 -0.144034,0.1988 -0.122518,0.4727 0.05078,0.6465 l 1.216797,1.2168 c 0.02924,0.039 0.06412,0.074 0.103516,0.1035 l 0.0078,0.01 -0.90625,0.9063 -1.328125,-1.3301 c -0.173825,-0.1733 -0.447732,-0.1948 -0.646484,-0.051 -0.851594,0.618 -1.836288,1.0275 -2.875,1.1953 -0.242279,0.039 -0.420193,0.2487 -0.419922,0.4942 l 0,1.875 -1.28125,0 0,-1.8809 c -6.86e-4,-0.2447 -0.178372,-0.453 -0.419922,-0.4922 -1.038219,-0.1661 -2.022876,-0.5735 -2.875,-1.1894 -0.198752,-0.1441 -0.472659,-0.1225 -0.646484,0.051 l -1.328125,1.33 -0.90625,-0.9082 1.328125,-1.3261 c 0.173911,-0.1734 0.196257,-0.4473 0.05273,-0.6465 -0.61795,-0.8516 -1.027526,-1.8363 -1.195312,-2.875 -0.03761,-0.2439 -0.247427,-0.4238 -0.494141,-0.4239 l -1.875,0 0,-1.2793 1.878906,0 c 0.24545,3e-4 0.45481,-0.1776 0.494141,-0.4199 0.166134,-1.0382 0.57347,-2.0248 1.189453,-2.8769 0.144034,-0.1988 0.122518,-0.4727 -0.05078,-0.6465 l -1.328125,-1.3281 0.90625,-0.9063 1.328125,1.3301 c 0.173825,0.1733 0.447732,0.1948 0.646484,0.051 0.851594,-0.618 1.836289,-1.0275 2.875,-1.1953 0.24155,-0.039 0.419237,-0.2475 0.419922,-0.4922 z M 19,1027.0477 c -2.578778,0 -4.679688,2.1009 -4.679688,4.6797 0,2.5787 2.10091,4.6797 4.679688,4.6797 2.578778,0 4.679687,-2.101 4.679688,-4.6797 0,-2.5788 -2.10091,-4.6797 -4.679688,-4.6797 z m 0,1 c 2.038337,0 3.679687,1.6413 3.679688,3.6797 0,2.0383 -1.641351,3.6797 -3.679688,3.6797 -2.038337,0 -3.679688,-1.6414 -3.679688,-3.6797 0,-2.0384 1.641351,-3.6797 3.679688,-3.6797 z" id="path6051" style="color:#000000;font-style:normal;font-variant:normal;font-weight:normal;font-stretch:normal;font-size:medium;line-height:normal;font-family:sans-serif;text-indent:0;text-align:start;text-decoration:none;text-decoration-line:none;text-decoration-style:solid;text-decoration-color:#000000;letter-spacing:normal;word-spacing:normal;text-transform:none;direction:ltr;block-progression:tb;writing-mode:lr-tb;baseline-shift:baseline;text-anchor:start;white-space:normal;clip-rule:nonzero;display:inline;overflow:visible;visibility:visible;opacity:1;isolation:auto;mix-blend-mode:normal;color-interpolation:sRGB;color-interpolation-filters:linearRGB;solid-color:#000000;solid-opacity:1;fill:#ffffff;fill-opacity:1;fill-rule:nonzero;stroke:none;stroke-width:1;stroke-linecap:round;stroke-linejoin:round;stroke-miterlimit:4;stroke-dasharray:none;stroke-dashoffset:0;stroke-opacity:1;color-rendering:auto;image-rendering:auto;shape-rendering:auto;text-rendering:auto;enable-background:accumulate"/></g></g></svg>